<svg xmlns="http://www.w3.org/2000/svg" id="outputsvg" class="img-fluid safari" cursor="move" transform-origin="50% 50%" viewBox="0 0 3600 3600"><g id="l79MRLmqt2VWmDE7w5WsE8j" fill="#96F"><path id="p12GPK9dNe" d="M170 1815V220h360v1385l62-65c55-58 546-560 1097-1122l194-198h427v32c0 29-24 57-213 248-598 605-1175 1196-1175 1205 0 7 375 424 418 465 3 3 52 57 110 120s107 117 110 120 82 88 175 190 192 210 220 240c57 62 137 149 211 230 28 30 94 102 147 160 87 93 97 108 97 142v38h-439l-23-29c-13-15-275-302-583-637-308-334-621-675-695-756l-135-147-3 784-2 785H170V1815z"/><path id="p6XBkGuaF" d="M3077 3404c-10-10-8-466 1-482 7-9 50-12 183-10l174 3v490l-176 3c-96 1-178-1-182-4z"/><path id="p1DNwHTVdG" d="M3117 2363c-4-3-7-31-7-61s-8-156-17-281c-14-185-17-369-18-1011V225l183-3 184-2-5 797c-5 720-11 974-33 1261l-6 92h-138c-75 0-140-3-143-7z"/></g><g id="l6VMcSvH2AeBVrUgiRFjhOF" fill="#4C3380"><path id="pY1dHiMpN" d="M100 1820V151l243-3c133-2 245-2 250 0 4 2 7 294 7 650v647l88-90c48-49 279-286 513-525 235-239 480-490 545-557l119-122 332-3 332-3-147 150c-194 197-1124 1147-1271 1297l-115 118 60 63c95 101 145 155 444 482 156 171 305 333 330 360 43 46 108 117 215 234 22 25 70 76 106 115 37 39 159 172 272 296l206 225-328 3-329 2-64-67c-36-38-120-129-188-203s-169-184-224-244c-122-132-128-138-190-207-26-30-72-79-100-109-29-30-153-165-277-300-123-134-247-269-276-300l-52-55-1 743v742H100V1820zm402 743 3-816 215 234c119 129 445 483 725 788 281 305 520 567 533 582l23 29h190c104 0 189-4 189-8s-43-55-97-112c-53-58-119-130-147-160-74-81-154-168-211-230-28-30-127-138-220-240s-172-187-175-190-52-57-110-120-107-117-110-120-106-114-228-248c-158-171-221-246-215-256 7-13 707-727 1202-1229l215-217h-371l-194 198C1219 958 676 1513 601 1593c-46 48-88 87-93 87-4 0-8-322-8-715V250H200v3130h300l2-817z"/><path id="pQOtHXn6u" d="M3010 3160v-330l248 2 247 3 3 328 2 327h-500v-330zm395 0v-215l-144-3c-109-2-146 1-153 10-9 16-11 412-1 422 4 3 72 5 152 4l146-3v-215z"/><path id="pS8ZCWKmg" d="M3056 2438c-5-14-22-256-36-523-5-93-10-530-10-970V145l247 2 248 2v753c0 473-5 855-13 1028-16 334-28 499-37 508-4 4-94 9-201 10-156 3-195 1-198-10zm318-190c21-284 28-538 33-1231l5-768-154 3-153 3v755c1 613 4 798 18 981 9 125 17 251 17 281s3 58 7 61c3 4 55 7 113 7h108l6-92z"/></g></svg>